<svg width="48" height="48" viewBox="0 0 48 48" fill="none" xmlns="http://www.w3.org/2000/svg">
<path d="M36 44H8C6.93913 44 5.92172 43.5786 5.17157 42.8284C4.42143 42.0783 4 41.0609 4 40V12" stroke="black" stroke-width="2" stroke-linecap="round" stroke-linejoin="round"/>
<path d="M44 26.0001L41.408 23.4081C40.5041 22.5043 39.2782 21.9966 38 21.9966C36.7218 21.9966 35.4959 22.5043 34.592 23.4081L22 36.0001" stroke="black" stroke-width="2" stroke-linecap="round" stroke-linejoin="round"/>
<path d="M24 20C26.2091 20 28 18.2091 28 16C28 13.7909 26.2091 12 24 12C21.7909 12 20 13.7909 20 16C20 18.2091 21.7909 20 24 20Z" stroke="black" stroke-width="2" stroke-linecap="round" stroke-linejoin="round"/>
<path d="M40 4H16C13.7909 4 12 5.79086 12 8V32C12 34.2091 13.7909 36 16 36H40C42.2091 36 44 34.2091 44 32V8C44 5.79086 42.2091 4 40 4Z" stroke="black" stroke-width="2" stroke-linecap="round" stroke-linejoin="round"/>
</svg>
