<svg xmlns="http://www.w3.org/2000/svg" width="20" height="20" viewBox="0 0 20 20">
  <g id="icon-quick-02" transform="translate(-1813 -502)">
    <path id="패스_3975" data-name="패스 3975" d="M12,2a8.024,8.024,0,0,0-8,8c0,5.4,7,11.5,7.3,11.8a1.854,1.854,0,0,0,.7.2,1.854,1.854,0,0,0,.7-.2C13,21.5,20,15.4,20,10A8.024,8.024,0,0,0,12,2Zm0,17.7c-2.1-2-6-6.3-6-9.7a6,6,0,0,1,12,0C18,13.3,14.1,17.7,12,19.7ZM12,6a4,4,0,1,0,4,4A4.012,4.012,0,0,0,12,6Zm0,6a2,2,0,1,1,2-2A2.006,2.006,0,0,1,12,12Z" transform="translate(1811 500)" fill="#fff"/>
    <rect id="사각형_897" data-name="사각형 897" width="20" height="20" transform="translate(1813 502)" fill="none"/>
  </g>
</svg>
